<svg xmlns="http://www.w3.org/2000/svg" width="68.407" height="42.5" viewBox="0 0 68.407 42.5"><defs><style>.a,.b,.c,.e{fill:none;}.a,.c{stroke:#e03d72;stroke-width:2px;}.a,.b,.c{stroke-linecap:round;}.a,.b{stroke-linejoin:round;}.d,.f{stroke:none;}.f{fill:#e03d72;}</style></defs><g transform="translate(2305.5 -12975.5)"><g class="a" transform="translate(-2304 12984)"><rect class="d" width="66" height="34"/><rect class="e" x="1" y="1" width="64" height="32"/></g><g class="b" transform="translate(-2284.079 12996.921)"><path class="d" d="M0,0H25.366V10.54H0Z"/><path class="f" d="M 1.999998092651367 2.000000953674316 L 1.999998092651367 8.539681434631348 L 23.36625862121582 8.539681434631348 L 23.36625862121582 4.830691337585449 L 23.36625862121582 2.000000953674316 L 1.999998092651367 2.000000953674316 M -1.9073486328125e-06 9.5367431640625e-07 L 25.36625862121582 9.5367431640625e-07 C 25.36625862121582 9.5367431640625e-07 25.36625862121582 2.195771217346191 25.36625862121582 4.830691337585449 C 25.36625862121582 7.465611457824707 25.36625862121582 10.53968143463135 25.36625862121582 10.53968143463135 L -1.9073486328125e-06 10.53968143463135 L -1.9073486328125e-06 9.5367431640625e-07 Z"/></g><path class="c" d="M-2261,12993v12.3" transform="translate(-21.103 -8.376)"/><path class="c" d="M-2261,12993v12.3" transform="translate(0.854 -8.376)"/><path class="c" d="M-2261,13050v8.783" transform="translate(-21.103 -42.101)"/><path class="c" d="M-2261,13050v9.223" transform="translate(0.854 -42.542)"/><g class="a" transform="translate(-2276 13010)"><rect class="d" width="9" height="8"/><rect class="e" x="1" y="1" width="7" height="6"/></g><g class="a" transform="translate(-2256.852 12988.138)"><rect class="d" width="5.709" height="6.381"/><rect class="e" x="1" y="1" width="3.709" height="4.381"/></g><g class="a" transform="translate(-2300.328 12988.138)"><rect class="d" width="5.709" height="6.381"/><rect class="e" x="1" y="1" width="3.709" height="4.381"/></g><g class="a" transform="translate(-2278.81 12988.138)"><rect class="d" width="5.709" height="6.381"/><rect class="e" x="1" y="1" width="3.709" height="4.381"/></g><g class="a" transform="translate(-2256.852 12997.799)"><rect class="d" width="5.709" height="6.381"/><rect class="e" x="1" y="1" width="3.709" height="4.381"/></g><g class="a" transform="translate(-2300.328 12997.799)"><rect class="d" width="5.709" height="6.381"/><rect class="e" x="1" y="1" width="3.709" height="4.381"/></g><g class="a" transform="translate(-2256.852 13007.46)"><rect class="d" width="5.709" height="6.381"/><rect class="e" x="1" y="1" width="3.709" height="4.381"/></g><g class="a" transform="translate(-2300.328 13007.46)"><rect class="d" width="5.709" height="6.381"/><rect class="e" x="1" y="1" width="3.709" height="4.381"/></g><g class="a" transform="translate(-2248.069 12988.138)"><rect class="d" width="5.709" height="6.381"/><rect class="e" x="1" y="1" width="3.709" height="4.381"/></g><g class="a" transform="translate(-2291.545 12988.138)"><rect class="d" width="5.709" height="6.381"/><rect class="e" x="1" y="1" width="3.709" height="4.381"/></g><g class="a" transform="translate(-2270.026 12988.138)"><rect class="d" width="5.709" height="6.381"/><rect class="e" x="1" y="1" width="3.709" height="4.381"/></g><g class="a" transform="translate(-2248.069 12997.799)"><rect class="d" width="5.709" height="6.381"/><rect class="e" x="1" y="1" width="3.709" height="4.381"/></g><g class="a" transform="translate(-2291.545 12997.799)"><rect class="d" width="5.709" height="6.381"/><rect class="e" x="1" y="1" width="3.709" height="4.381"/></g><g class="a" transform="translate(-2248.069 13007.46)"><rect class="d" width="5.709" height="6.381"/><rect class="e" x="1" y="1" width="3.709" height="4.381"/></g><g class="a" transform="translate(-2291.545 13007.46)"><rect class="d" width="5.709" height="6.381"/><rect class="e" x="1" y="1" width="3.709" height="4.381"/></g><path class="a" d="M-2312,12981.186h66.407l-2.561-7.686h-60.692Z" transform="translate(7.5 3)"/></g></svg>