<svg xmlns="http://www.w3.org/2000/svg" width="13.721" height="13.721" viewBox="0 0 13.721 13.721"><defs><style>.a{fill:#727780;}</style></defs><path class="a" d="M12.854,14.7,8.227,10.078,3.6,14.7a1.3,1.3,0,0,1-1.845,0l0,0h0a1.3,1.3,0,0,1,0-1.845l0,0L6.376,8.227,1.751,3.6a1.3,1.3,0,0,1,0-1.845l0,0h0a1.3,1.3,0,0,1,1.845,0l0,0L8.227,6.376l4.627-4.626a1.3,1.3,0,0,1,1.845,0l0,0h0a1.3,1.3,0,0,1,0,1.845l0,0L10.078,8.227,14.7,12.854a1.3,1.3,0,0,1,0,1.845l0,0h0a1.3,1.3,0,0,1-1.845,0Z" transform="translate(-1.366 -1.366)"/></svg>