<svg xmlns="http://www.w3.org/2000/svg" width="58.951" height="47.974" viewBox="0 0 58.951 47.974"><defs><style>.a,.b,.d{fill:none;}.a,.b{stroke:#897cba;stroke-width:4px;}.b{stroke-linecap:round;}.c{stroke:none;}</style></defs><g transform="translate(-11283.168 -13560)"><g class="a" transform="translate(11293 13560)"><circle class="c" cx="12" cy="12" r="12"/><circle class="d" cx="12" cy="12" r="10"/></g><g class="a" transform="translate(11318 13577)"><circle class="c" cx="8.5" cy="8.5" r="8.5"/><circle class="d" cx="8.5" cy="8.5" r="6.5"/></g><path class="b" d="M28.114,21.808c-.329-.3.058-1.828,1.116-3.695-11.447.285-28.121.307-29.061-.54C-1.232,16.308,6.106-.023,20.59,0c8.425.014,14.185,5.755,17.166,10.673A12.483,12.483,0,0,1,41.836,10c9.733.016,14.175,11.408,12.93,11.807-.726.233-9.329.483-16.573.483C33,22.291,28.507,22.163,28.114,21.808Z" transform="translate(11285.146 13583.683)"/><path class="a" d="M11313.862,13602.011s4.168-6.367,8.421-7.412"/></g></svg>