<svg xmlns="http://www.w3.org/2000/svg" width="54.238" height="41.105" viewBox="0 0 54.238 41.105"><defs><style>.a{fill:#e6944d;}</style></defs><g transform="translate(0)"><path class="a" d="M5.239,8.735h46.71l-3.5-7.007H5.706L2.3,8.735ZM24.95,14.013h4.344a.849.849,0,0,1,.888.841v4.391a.887.887,0,0,1-.888.888H24.95a.887.887,0,0,1-.888-.888V14.854A.849.849,0,0,1,24.95,14.013Zm3.5,1.728H25.838v2.616h2.616Zm9.622-1.728H42.42a.849.849,0,0,1,.887.841v4.391a.887.887,0,0,1-.887.888H38.076a.887.887,0,0,1-.887-.888V14.854A.849.849,0,0,1,38.076,14.013Zm3.5,1.728H38.917v2.616h2.662ZM43.308,27.98V32.37a.887.887,0,0,1-.887.888H38.076a.887.887,0,0,1-.887-.888V27.98a.849.849,0,0,1,.887-.841H42.42A.849.849,0,0,1,43.308,27.98Zm-1.728,3.5V28.867H38.917v2.616ZM11.825,14.013h4.344a.849.849,0,0,1,.887.841v4.391a.887.887,0,0,1-.887.888H11.825a.887.887,0,0,1-.887-.888V14.854A.849.849,0,0,1,11.825,14.013Zm3.5,1.728H12.712v2.616h2.616ZM17.056,27.98V32.37a.887.887,0,0,1-.887.888H11.825a.887.887,0,0,1-.887-.888V27.98a.849.849,0,0,1,.887-.841h4.344A.849.849,0,0,1,17.056,27.98Zm-1.728,3.5V28.867H12.712v2.616Zm15.321,7.894V31.483a3.509,3.509,0,0,0-3.5-3.5,3.509,3.509,0,0,0-3.5,3.5v7.894Zm.841,1.728H5.239a.837.837,0,0,1-.841-.841V10.51H.894l-.374-.093A.845.845,0,0,1,.1,9.249L4.351.514A.89.89,0,0,1,5.145,0H49.006A.963.963,0,0,1,49.8.467l4.3,8.688.14.467a.887.887,0,0,1-.888.888H49.894V40.264a.878.878,0,0,1-.887.841H31.49Zm-9.622-1.728V31.483a5.226,5.226,0,0,1,1.541-3.69,5.423,5.423,0,0,1,3.737-1.541,5.263,5.263,0,0,1,5.232,5.232v7.894H48.119V10.51H6.126V39.377Z" transform="translate(0)"/></g></svg>