<svg xmlns="http://www.w3.org/2000/svg" width="17.74" height="21.497" viewBox="0 0 17.74 21.497"><defs><style>.a{fill:none;stroke:#888586;stroke-linecap:round;stroke-width:2px;}.b{fill:#888586;}</style></defs><g transform="translate(-563.5 -291.238)"><g transform="translate(564.5 294.238)"><g transform="translate(3.04 -2)"><line class="a" y1="11.947" transform="translate(4.8)"/><path class="b" d="M7.954,5.766l-3.2-3.2-3.2,3.2a.9.9,0,0,1-1.278,0l0,0h0a.9.9,0,0,1,0-1.278l0,0,3.2-3.2A15.036,15.036,0,0,0,4.75,0c.115.192,1.385,1.389,1.281,1.281l3.2,3.2a.9.9,0,0,1,0,1.278l0,0h0a.9.9,0,0,1-1.278,0Z" transform="translate(9.5 14.822) rotate(180)"/></g><path class="a" d="M6924,8241v5.781h15.74V8241" transform="translate(-6924.001 -8229.284)"/></g></g></svg>