<svg xmlns="http://www.w3.org/2000/svg" width="15" height="21.762" viewBox="0 0 15 21.762"><defs><style>.a{fill:#eb6aa4;}</style></defs><path class="a" d="M32.1,14a7.511,7.511,0,0,0-7.5,7.5c0,4.075,7.116,13.73,7.175,13.819l.325.443.325-.443C32.484,35.23,39.6,25.575,39.6,21.5A7.511,7.511,0,0,0,32.1,14Zm0,.8a6.717,6.717,0,0,1,6.7,6.7c0,3.1-4.872,10.305-6.7,12.9-2.067-2.864-6.7-9.892-6.7-12.9A6.717,6.717,0,0,1,32.1,14.8Z" transform="translate(-24.6 -14)"/><path class="a" d="M40.275,33.75A4.075,4.075,0,1,0,36.2,29.675,4.083,4.083,0,0,0,40.275,33.75Zm0-7.352A3.278,3.278,0,1,1,37,29.675,3.289,3.289,0,0,1,40.275,26.4Z" transform="translate(-32.775 -22.175)"/></svg>