<svg xmlns="http://www.w3.org/2000/svg" width="62" height="62" viewBox="0 0 62 62"><defs><style>.a{fill:#e03d72;}.b,.c,.d,.f{fill:none;}.b,.d{stroke:#fff;}.b,.c,.d{stroke-linecap:round;}.b,.c{stroke-linejoin:round;}.e,.g{stroke:none;}.g{fill:#fff;}</style></defs><g transform="translate(-654 -981)"><circle class="a" cx="31" cy="31" r="31" transform="translate(654 981)"/><g transform="translate(664 998.5)"><g class="b" transform="translate(0.5 4.5)"><rect class="e" width="42" height="22"/><rect class="f" x="0.5" y="0.5" width="41" height="21"/></g><g class="c" transform="translate(13.04 13.04)"><path class="e" d="M0,0H16.2V6.73H0Z"/><path class="g" d="M 0.999995231628418 0.9999995231628418 L 0.999995231628418 5.730159282684326 L 15.19773578643799 5.730159282684326 L 15.19773578643799 3.084659337997437 L 15.19773578643799 0.9999995231628418 L 0.999995231628418 0.9999995231628418 M -3.814697265625e-06 -4.76837158203125e-07 L 16.19773483276367 -4.76837158203125e-07 C 16.19773483276367 -4.76837158203125e-07 16.19773483276367 1.402119636535645 16.19773483276367 3.084659337997437 C 16.19773483276367 4.767199516296387 16.19773483276367 6.730159282684326 16.19773483276367 6.730159282684326 L -3.814697265625e-06 6.730159282684326 L -3.814697265625e-06 -4.76837158203125e-07 Z"/></g><path class="d" d="M-2261,12993v7.852" transform="translate(2275.302 -12987.813)"/><path class="d" d="M-2261,12993v7.852" transform="translate(2289.323 -12987.813)"/><path class="d" d="M-2261,13050v5.609" transform="translate(2275.302 -13029.95)"/><path class="d" d="M-2261,13050v5.889" transform="translate(2289.323 -13030.232)"/><g class="b" transform="translate(18.5 21.5)"><rect class="e" width="5" height="5"/><rect class="f" x="0.5" y="0.5" width="4" height="4"/></g><g class="b" transform="translate(30.426 7.432)"><rect class="e" width="3.646" height="4.074"/><rect class="f" x="0.5" y="0.5" width="2.646" height="3.074"/></g><g class="b" transform="translate(2.664 7.432)"><rect class="e" width="3.646" height="4.074"/><rect class="f" x="0.5" y="0.5" width="2.646" height="3.074"/></g><g class="b" transform="translate(16.405 7.432)"><rect class="e" width="3.646" height="4.074"/><rect class="f" x="0.5" y="0.5" width="2.646" height="3.074"/></g><g class="b" transform="translate(30.426 13.601)"><rect class="e" width="3.646" height="4.074"/><rect class="f" x="0.5" y="0.5" width="2.646" height="3.074"/></g><g class="b" transform="translate(2.664 13.601)"><rect class="e" width="3.646" height="4.074"/><rect class="f" x="0.5" y="0.5" width="2.646" height="3.074"/></g><g class="b" transform="translate(30.426 19.77)"><rect class="e" width="3.646" height="4.074"/><rect class="f" x="0.5" y="0.5" width="2.646" height="3.074"/></g><g class="b" transform="translate(2.664 19.77)"><rect class="e" width="3.646" height="4.074"/><rect class="f" x="0.5" y="0.5" width="2.646" height="3.074"/></g><g class="b" transform="translate(36.034 7.432)"><rect class="e" width="3.646" height="4.074"/><rect class="f" x="0.5" y="0.5" width="2.646" height="3.074"/></g><g class="b" transform="translate(8.272 7.432)"><rect class="e" width="3.646" height="4.074"/><rect class="f" x="0.5" y="0.5" width="2.646" height="3.074"/></g><g class="b" transform="translate(22.013 7.432)"><rect class="e" width="3.646" height="4.074"/><rect class="f" x="0.5" y="0.5" width="2.646" height="3.074"/></g><g class="b" transform="translate(36.034 13.601)"><rect class="e" width="3.646" height="4.074"/><rect class="f" x="0.5" y="0.5" width="2.646" height="3.074"/></g><g class="b" transform="translate(8.272 13.601)"><rect class="e" width="3.646" height="4.074"/><rect class="f" x="0.5" y="0.5" width="2.646" height="3.074"/></g><g class="b" transform="translate(36.034 19.77)"><rect class="e" width="3.646" height="4.074"/><rect class="f" x="0.5" y="0.5" width="2.646" height="3.074"/></g><g class="b" transform="translate(8.272 19.77)"><rect class="e" width="3.646" height="4.074"/><rect class="f" x="0.5" y="0.5" width="2.646" height="3.074"/></g><path class="b" d="M-2312,12978.407h42.4l-1.635-4.907h-38.755Z" transform="translate(2312 -12973.5)"/></g></g></svg>