<svg xmlns="http://www.w3.org/2000/svg" width="14.439" height="30.284" viewBox="0 0 14.439 30.284"><defs><style>.a{fill:#727780;}.b{fill:none;stroke:#727780;stroke-linecap:round;stroke-width:3px;}</style></defs><g transform="translate(-21 -749.983)"><path class="a" d="M13.455,15.4,8.586,10.534,3.717,15.4a1.373,1.373,0,0,1-1.942,0l0,0h0a1.373,1.373,0,0,1,0-1.942l0,0L6.638,8.586A22.852,22.852,0,0,0,8.586,6.638c.175.292,2.1,2.111,1.948,1.948L15.4,13.455a1.373,1.373,0,0,1,0,1.942l0,0h0a1.373,1.373,0,0,1-1.942,0Z" transform="translate(36.805 786.905) rotate(180)"/><line class="b" y1="26" x2="0.3" transform="translate(28.2 751.5)"/></g></svg>