<svg xmlns="http://www.w3.org/2000/svg" width="60" height="60" viewBox="0 0 60 60"><defs><style>.a,.b,.c,.e{fill:none;}.a{stroke:#e03d72;}.b,.c{stroke:#515458;stroke-width:1.5px;}.b{stroke-linecap:round;stroke-linejoin:round;}.d{stroke:none;}</style></defs><g transform="translate(-691 -539)"><g class="a" transform="translate(691 539)"><circle class="d" cx="30" cy="30" r="30"/><circle class="e" cx="30" cy="30" r="29.5"/></g><g transform="translate(699.5 556.593)"><path class="b" d="M5323.653,11993.212h4.105l-5.982-4.215h-30.568l-6.207,4.215h38.651Z" transform="translate(-5285.001 -11988.997)"/><g class="c" transform="translate(17.482 13.708)"><path class="d" d="M3,0H5A3,3,0,0,1,8,3V13a0,0,0,0,1,0,0H0a0,0,0,0,1,0,0V3A3,3,0,0,1,3,0Z"/><path class="e" d="M3,.75H5A2.25,2.25,0,0,1,7.25,3v8.5a.75.75,0,0,1-.75.75h-5a.75.75,0,0,1-.75-.75V3A2.25,2.25,0,0,1,3,.75Z"/></g><path class="c" d="M5305,12006.5v22.109h32.118V12006.5" transform="translate(-5299.403 -12002.378)"/><g class="b" transform="translate(7.184 7.708)"><rect class="d" width="10" height="4"/><rect class="e" x="0.75" y="0.75" width="8.5" height="2.5"/></g><g class="b" transform="translate(26.746 7.708)"><rect class="d" width="9" height="4"/><rect class="e" x="0.75" y="0.75" width="7.5" height="2.5"/></g><g class="b" transform="translate(7.184 12.708)"><rect class="d" width="10" height="3"/><rect class="e" x="0.75" y="0.75" width="8.5" height="1.5"/></g><g class="b" transform="translate(26.746 12.708)"><rect class="d" width="9" height="3"/><rect class="e" x="0.75" y="0.75" width="7.5" height="1.5"/></g><g class="b" transform="translate(7.184 17.708)"><rect class="d" width="10" height="4"/><rect class="e" x="0.75" y="0.75" width="8.5" height="2.5"/></g><g class="b" transform="translate(26.746 17.708)"><rect class="d" width="9" height="4"/><rect class="e" x="0.75" y="0.75" width="7.5" height="2.5"/></g></g></g></svg>