<svg xmlns="http://www.w3.org/2000/svg" width="18" height="18" viewBox="0 0 18 18"><defs><style>.a{fill:#dbd04c;}</style></defs><path class="a" d="M19.436,10.957A1.965,1.965,0,0,0,19.9,8.975a1.878,1.878,0,0,0-1.5-1.311L14.62,7.085a.364.364,0,0,1-.27-.2l-1.68-3.575a1.826,1.826,0,0,0-3.331,0l-1.7,3.575a.364.364,0,0,1-.27.2l-3.781.578a1.878,1.878,0,0,0-1.5,1.311,1.939,1.939,0,0,0,.48,1.983L5.3,13.721a.381.381,0,0,1,.105.328l-.645,3.919A1.965,1.965,0,0,0,5.5,19.856,1.746,1.746,0,0,0,7.448,20l3.391-1.858a.314.314,0,0,1,.33,0L14.545,20a1.72,1.72,0,0,0,.87.219,1.794,1.794,0,0,0,1.1-.375,1.965,1.965,0,0,0,.735-1.889L16.6,14.033a.367.367,0,0,1,.105-.328Zm-3.781,1.655a2.043,2.043,0,0,0-.54,1.717l.645,3.919a.377.377,0,0,1-.135.359.331.331,0,0,1-.375.031l-3.376-1.858a1.842,1.842,0,0,0-1.74,0L6.758,18.639a.306.306,0,0,1-.375-.031.337.337,0,0,1-.135-.359l.645-3.919a1.968,1.968,0,0,0-.54-1.717L3.607,9.833a.4.4,0,0,1-.09-.375.349.349,0,0,1,.285-.25l3.781-.578a1.861,1.861,0,0,0,1.4-1.062l1.7-3.56A.4.4,0,0,1,11,3.791a.34.34,0,0,1,.315.2l1.7,3.56a1.861,1.861,0,0,0,1.4,1.062l3.781.578a.349.349,0,0,1,.285.25.37.37,0,0,1-.075.39Z" transform="translate(-1.997 -2.23)"/><path class="a" d="M3387.542-326l-2.238,4.333-4.714,1.238-.589.99,3.064,3.961-.472,5.2,1.3,1.114,3.653-2.1,4.715,1.486h1.414l-.589-4.951.589-2.228,2.829-2.476-1.768-1.733-4.007-.5L3388.957-326Z" transform="translate(-3379.124 327.171)"/></svg>