<svg xmlns="http://www.w3.org/2000/svg" width="62" height="62" viewBox="0 0 62 62"><defs><style>.a{fill:#897cba;}.b,.c,.e{fill:none;}.b,.c{stroke:#fff;stroke-width:2px;}.c{stroke-linecap:round;}.d{stroke:none;}</style></defs><g transform="translate(-238 -981)"><circle class="a" cx="31" cy="31" r="31" transform="translate(238 981)"/><g transform="translate(248.146 991)"><g class="b" transform="translate(5.854)"><circle class="d" cx="9" cy="9" r="9"/><circle class="e" cx="9" cy="9" r="8"/></g><g class="b" transform="translate(24.854 13)"><circle class="d" cx="6.5" cy="6.5" r="6.5"/><circle class="e" cx="6.5" cy="6.5" r="5.5"/></g><path class="c" d="M21.2,16.444c-.248-.224.044-1.378.841-2.786-8.632.215-21.2.231-21.913-.408C-.929,12.3,4.6-.018,15.526,0c6.353.01,10.7,4.339,12.944,8.048a9.412,9.412,0,0,1,3.076-.507c7.339.012,10.688,8.6,9.75,8.9-.547.176-7.034.364-12.5.364C24.885,16.808,21.5,16.711,21.2,16.444Z" transform="translate(0 17.857)"/><path class="b" d="M11313.862,13600.188s3.143-4.8,6.35-5.589" transform="translate(-11292.21 -13568.51)"/></g></g></svg>