<svg xmlns="http://www.w3.org/2000/svg" width="21.751" height="21.751" viewBox="0 0 21.751 21.751"><defs><style>.a{fill:#c45b5b;}</style></defs><g transform="translate(10.875) rotate(45)"><path class="a" d="M9.1,10.571,5.438,6.9,1.77,10.571a1.034,1.034,0,0,1-1.463,0l0,0h0a1.034,1.034,0,0,1,0-1.463l0,0L3.971,5.438.3,1.77A1.034,1.034,0,0,1,.3.308l0,0h0A1.034,1.034,0,0,1,1.767.3l0,0L5.438,3.971,9.1.3a1.034,1.034,0,0,1,1.463,0l0,0h0a1.034,1.034,0,0,1,0,1.463l0,0L6.9,5.438,10.571,9.1a1.034,1.034,0,0,1,0,1.463l0,0h0a1.034,1.034,0,0,1-1.463,0Z" transform="translate(7.69 0) rotate(45)"/></g></svg>