<svg xmlns="http://www.w3.org/2000/svg" width="66" height="35" viewBox="0 0 66 35"><defs><style>.a{fill:#e03d72;}.b{fill:#fff;stroke-width:0.5px;}.b,.c{stroke:#fff;}.c{fill:none;stroke-linecap:round;stroke-width:2px;}</style></defs><g transform="translate(-1226 -92)"><rect class="a" width="66" height="35" rx="6" transform="translate(1226 92)"/><g transform="translate(1222.355 85.5)"><path class="b" d="M27.572,15.5A12.072,12.072,0,1,0,39.645,27.572,12.1,12.1,0,0,0,27.572,15.5Zm0,23.095a10.887,10.887,0,0,1-7.8-3.254c2.135-2.869,4.9-4.444,7.8-4.444s5.669,1.575,7.8,4.444A10.887,10.887,0,0,1,27.572,38.595Zm0-9.1a3.989,3.989,0,1,1,3.989-3.989A3.987,3.987,0,0,1,27.572,29.5Zm8.5,5.074a11.312,11.312,0,0,0-6.4-4.479,5.04,5.04,0,1,0-7.138-4.584,5.091,5.091,0,0,0,2.939,4.584,11.413,11.413,0,0,0-6.4,4.444,10.908,10.908,0,0,1-2.519-7,11.023,11.023,0,1,1,19.526,7.033Z" transform="translate(23 -4)"/></g><g transform="translate(-5 -3)"><line class="c" x2="13.082" transform="translate(1242.418 108.5)"/><line class="c" x2="13.082" transform="translate(1242.418 112.861)"/><line class="c" x2="13.082" transform="translate(1242.418 117.221)"/></g></g></svg>